<svg xmlns="http://www.w3.org/2000/svg" viewBox="0 0 96 96">
  <defs>
    <linearGradient id="fur" x2="0" y2="1"><stop stop-color="#b9eaff"/><stop offset="1" stop-color="#3472a7"/></linearGradient>
    <linearGradient id="steel" x2="0" y2="1"><stop stop-color="#fff4cc"/><stop offset="1" stop-color="#a6bed8"/></linearGradient>
  </defs>
  <ellipse cx="48" cy="87" rx="29" ry="6" fill="#161b37" opacity=".35"/>
  <path d="M26 79 30 61h36l5 18q-21 11-45 0" fill="#4b547d" stroke="#252845" stroke-width="3"/>
  <path d="M29 50Q25 27 43 22L34 9l18 9Q68 14 72 34l-4 28H31z" fill="url(#fur)" stroke="#26334d" stroke-width="4" stroke-linejoin="round"/>
  <path d="m31 34-5-17 18 11M65 28 76 15l-1 24" fill="#85c9e9" stroke="#26334d" stroke-width="4" stroke-linejoin="round"/>
  <path d="M35 45q13-11 27 0l-4 12q-11 8-21-1z" fill="#f8e2b8"/>
  <ellipse cx="41" cy="39" rx="3.5" ry="5" fill="#fff8db"/><ellipse cx="58" cy="39" rx="3.5" ry="5" fill="#fff8db"/>
  <circle cx="42" cy="40" r="1.7" fill="#24304a"/><circle cx="57" cy="40" r="1.7" fill="#24304a"/>
  <path d="M43 53q6 5 12 0" fill="none" stroke="#493746" stroke-width="2.5" stroke-linecap="round"/>
  <path d="m72 46 16-27 5 3-14 30-7 6z" fill="url(#steel)" stroke="#36405a" stroke-width="3" stroke-linejoin="round"/>
  <path d="m69 52 10 5M84 22l4-7" stroke="#f6cf73" stroke-width="4" stroke-linecap="round"/>
  <path d="M27 59q-11 4-8 13l12 2M66 61q12 1 12 10l-9 2" fill="none" stroke="#26334d" stroke-width="5" stroke-linecap="round"/>
</svg>
