<svg xmlns="http://www.w3.org/2000/svg" viewBox="0 0 96 96">
  <path d="M48 9 57 31l23-9-9 23 22 9-22 9 9 23-23-9-9 22-9-22-23 9 9-23-22-9 22-9-9-23 23 9z" fill="#ff9d34" stroke="#4b2c67" stroke-width="6" stroke-linejoin="round"/>
  <path d="m48 27 5 16 17-4-11 13 11 13-17-4-5 16-5-16-17 4 11-13-11-13 17 4z" fill="#ffe888" stroke="#d5575e" stroke-width="4" stroke-linejoin="round"/>
  <path d="m13 11 7 6M77 79l7 6M84 11l-6 7M14 84l6-7" stroke="#fff4a5" stroke-width="4" stroke-linecap="round"/>
</svg>
